<?xml version="1.0" standalone="no"?>
<!DOCTYPE svg PUBLIC "-//W3C//DTD SVG 1.0//EN" "http://www.w3.org/TR/2001/REC-SVG-20010904/DTD/svg10.dtd">
<svg xmlns="http://www.w3.org/2000/svg" xmlns:xlink="http://www.w3.org/1999/xlink" id="body_1" width="105" height="105">

<g transform="matrix(0.10714286 0 0 0.10714286 0 0)">
	<g transform="matrix(0.1 0 -0 -0.1 0 980)">
        <path d="M3630 8530L3630 8490L3885 8490C 4164 8490 4150 8487 4134 8548L4134 8548L4128 8570L3879 8570L3630 8570L3630 8530z" stroke="none" fill="#000000" fill-rule="nonzero" />
        <path d="M5608 8530L5604 8490L5857 8490L6110 8490L6110 8530L6110 8570L5861 8570L5612 8570L5608 8530z" stroke="none" fill="#000000" fill-rule="nonzero" />
        <path d="M3647 8340C 3625 8263 3625 8258 3655 8214C 3687 8167 3687 8148 3654 7993L3654 7993L3650 7970L3881 7970L4112 7970L4106 7998C 4076 8151 4076 8172 4112 8223C 4133 8253 4133 8281 4110 8363L4110 8363L4099 8400L3881 8400L3663 8400L3647 8340z" stroke="none" fill="#000000" fill-rule="nonzero" />
        <path d="M5630 8363C 5606 8277 5607 8256 5634 8215C 5648 8194 5660 8165 5660 8150C 5660 8124 5643 8020 5634 7988C 5629 7971 5644 7970 5860 7970L5860 7970L6092 7970L6087 7993C 6072 8053 6060 8154 6066 8174C 6070 8185 6082 8208 6092 8223C 6113 8253 6113 8281 6090 8363L6090 8363L6079 8400L5860 8400L5641 8400L5630 8363z" stroke="none" fill="#000000" fill-rule="nonzero" />
        <path d="M4592 8328C 4585 8321 4580 8297 4580 8273L4580 8273L4580 8230L4870 8230L5160 8230L5160 8273C 5160 8297 5155 8321 5148 8328C 5139 8337 5064 8340 4870 8340C 4676 8340 4601 8337 4592 8328z" stroke="none" fill="#000000" fill-rule="nonzero" />
        <path d="M4611 8103C 4575 7967 4576 7973 4604 7940C 4641 7895 4644 7870 4626 7771C 4617 7722 4610 7679 4610 7676C 4610 7673 4727 7670 4870 7670C 5013 7670 5130 7673 5130 7678C 5130 7682 5123 7721 5115 7765C 5096 7859 5101 7898 5137 7940C 5164 7973 5165 7967 5129 8103L5129 8103L5119 8140L4870 8140L4621 8140L4611 8103z" stroke="none" fill="#000000" fill-rule="nonzero" />
        <path d="M3625 7828C 3607 7779 3577 7550 3573 7430L3573 7430L3568 7285L3625 7247C 3782 7146 3972 7145 4134 7246L4134 7246L4193 7283L4187 7434C 4183 7566 4151 7804 4134 7831C 4131 7836 4018 7840 3879 7840C 3688 7840 3628 7837 3625 7828z" stroke="none" fill="#000000" fill-rule="nonzero" />
        <path d="M5605 7828C 5585 7773 5557 7560 5553 7434L5553 7434L5547 7284L5595 7252C 5669 7203 5746 7178 5837 7172C 5936 7167 6024 7190 6113 7245L6113 7245L6170 7282L6170 7390C 6170 7495 6153 7650 6127 7775L6127 7775L6114 7835L5862 7838C 5665 7840 5609 7838 5605 7828z" stroke="none" fill="#000000" fill-rule="nonzero" />
        <path d="M4566 7443C 4532 7254 4520 7150 4520 7025L4520 7025L4520 6895L4567 6865C 4688 6788 4771 6765 4905 6772C 5005 6778 5079 6803 5170 6861L5170 6861L5222 6895L5217 7070C 5213 7196 5204 7284 5186 7385C 5172 7462 5160 7526 5160 7528C 5160 7529 5030 7530 4871 7530L4871 7530L4582 7530L4566 7443z" stroke="none" fill="#000000" fill-rule="nonzero" />
        <path d="M3566 6988C 3561 6885 3555 6849 3540 6825C 3530 6809 3474 6748 3415 6691C 3238 6519 3210 6461 3210 6267L3210 6267L3210 6147L3289 6232C 3425 6377 3569 6461 3740 6496C 3902 6528 4084 6499 4237 6416L4237 6416L4299 6383L4339 6424L4380 6466L4380 6560L4380 6654L4296 6739C 4197 6840 4190 6859 4190 7013C 4190 7072 4189 7120 4187 7120C 4185 7120 4160 7109 4131 7095C 4053 7057 3975 7040 3880 7040C 3786 7040 3721 7055 3635 7094C 3603 7108 3577 7120 3575 7120C 3574 7120 3570 7061 3566 6988z" stroke="none" fill="#000000" fill-rule="nonzero" />
        <path d="M5550 6992C 5550 6868 5549 6862 5522 6819C 5506 6795 5463 6747 5427 6713L5427 6713L5360 6651L5360 6560L5360 6470L5401 6425L5442 6381L5518 6420C 5751 6536 5971 6540 6195 6430C 6308 6375 6406 6299 6477 6211C 6503 6178 6529 6151 6534 6151C 6538 6150 6540 6212 6538 6288C 6534 6424 6534 6425 6496 6497C 6466 6554 6433 6593 6334 6688C 6260 6759 6204 6822 6195 6843C 6184 6869 6180 6915 6180 7000C 6180 7066 6176 7120 6172 7120C 6167 7120 6140 7109 6111 7095C 5958 7021 5756 7021 5609 7096C 5582 7109 5558 7120 5555 7120C 5552 7120 5550 7062 5550 6992z" stroke="none" fill="#000000" fill-rule="nonzero" />
        <path d="M5146 6699C 5046 6652 4968 6635 4859 6636C 4767 6637 4664 6663 4578 6706C 4552 6719 4526 6730 4520 6730C 4514 6730 4510 6677 4510 6582C 4510 6436 4510 6433 4482 6389C 4466 6365 4410 6305 4357 6257C 4237 6147 4168 6057 4141 5973C 4123 5920 4120 5885 4120 5762L4120 5762L4121 5615L4142 5645C 4193 5714 4321 5836 4395 5884C 4555 5989 4692 6031 4870 6032C 5040 6032 5199 5983 5337 5889C 5404 5842 5533 5717 5587 5646L5587 5646L5632 5585L5628 5765L5625 5945L5591 6015C 5563 6073 5531 6111 5411 6232C 5331 6314 5259 6392 5250 6407C 5239 6427 5234 6477 5230 6586L5230 6586L5225 6736L5146 6699z" stroke="none" fill="#000000" fill-rule="nonzero" />
        <path d="M3751 6364C 3544 6320 3356 6161 3241 5933L3241 5933L3210 5871L3210 5555L3210 5240L3598 5242L3985 5245L3985 5305L3985 5365L3707 5370C 3446 5375 3427 5376 3414 5394C 3394 5422 3397 5457 3420 5480C 3439 5499 3453 5500 3710 5500L3710 5500L3980 5500L3986 5524C 3991 5544 3990 5567 3980 5628C 3980 5629 3888 5630 3775 5630C 3583 5630 3569 5631 3550 5650C 3526 5674 3525 5707 3546 5735C 3560 5754 3576 5755 3773 5760L3773 5760L3985 5765L3991 5870C 4000 6016 4034 6099 4139 6225C 4166 6258 4186 6288 4184 6292C 4174 6308 4064 6351 3995 6365C 3906 6383 3837 6383 3751 6364z" stroke="none" fill="#000000" fill-rule="nonzero" />
        <path d="M5770 6370C 5715 6360 5638 6334 5587 6308L5587 6308L5549 6289L5604 6229C 5706 6116 5760 5981 5760 5838L5760 5838L5760 5760L5971 5758L6183 5755L6202 5729C 6223 5701 6220 5672 6194 5645C 6181 5633 6142 5630 5969 5630L5969 5630L5760 5630L5760 5565L5760 5500L6033 5500C 6324 5499 6333 5498 6345 5449C 6349 5432 6345 5416 6330 5397L6330 5397L6309 5370L6034 5370L5760 5370L5760 5305L5760 5240L6150 5240L6540 5240L6540 5549C 6540 5899 6542 5886 6454 6023C 6286 6283 6027 6415 5770 6370z" stroke="none" fill="#000000" fill-rule="nonzero" />
        <path d="M1410 5969C 1380 5957 1370 5942 1370 5909C 1370 5856 1387 5851 1612 5848C 1837 5845 1845 5843 1893 5778C 1912 5753 1942 5623 2411 3510C 2529 2978 2621 2584 2634 2555C 2669 2479 2731 2416 2808 2378L2808 2378L2875 2345L4694 2342C 6692 2340 6560 2336 6560 2398C 6560 2431 6552 2443 6523 2459C 6507 2467 6040 2470 4708 2470L4708 2470L2915 2470L2865 2494C 2805 2522 2778 2550 2751 2610C 2741 2635 2576 3357 2385 4215C 2195 5073 2030 5793 2021 5815C 1997 5868 1936 5928 1880 5953C 1840 5972 1812 5974 1635 5977C 1511 5979 1426 5976 1410 5969z" stroke="none" fill="#000000" fill-rule="nonzero" />
        <path d="M4705 5881C 4484 5827 4268 5643 4158 5416C 4130 5357 4120 5323 4120 5288L4120 5288L4120 5240L4875 5240L5630 5240L5630 5282C 5630 5348 5545 5493 5421 5638C 5328 5747 5164 5849 5025 5885C 4947 5905 4794 5903 4705 5881z" stroke="none" fill="#000000" fill-rule="nonzero" />
        <path d="M2676 5094C 2667 5086 2660 5074 2660 5068C 2660 5063 2698 4891 2744 4686C 2790 4482 2894 4023 2975 3665C 3055 3308 3126 3003 3132 2987C 3138 2972 3157 2944 3174 2925C 3238 2855 3127 2860 4701 2860C 6282 2860 6156 2854 6222 2929C 6243 2951 6283 3030 6329 3135C 6369 3229 6417 3339 6435 3380C 6453 3421 6534 3608 6615 3795C 6696 3982 6821 4270 6892 4435C 6964 4600 7035 4764 7050 4800C 7066 4836 7097 4907 7119 4959C 7142 5011 7160 5059 7160 5065C 7160 5072 7152 5084 7142 5093C 7125 5109 6955 5110 4907 5110C 2906 5110 2690 5108 2676 5094z" stroke="none" fill="#000000" fill-rule="nonzero" />
        <path d="M3203 2076C 3078 2029 2977 1924 2934 1797C 2908 1722 2911 1592 2939 1518C 2988 1391 3090 1292 3215 1250C 3270 1232 3298 1228 3375 1232C 3457 1235 3476 1240 3542 1273C 3769 1385 3855 1649 3738 1872C 3698 1947 3616 2023 3533 2063C 3473 2091 3453 2095 3365 2097C 3280 2100 3256 2097 3203 2076z" stroke="none" fill="#000000" fill-rule="nonzero" />
        <path d="M5767 2081C 5657 2045 5559 1958 5508 1851C 5465 1761 5457 1635 5489 1532C 5544 1351 5710 1230 5906 1230C 6060 1230 6190 1302 6275 1435C 6325 1512 6343 1586 6338 1691C 6334 1767 6329 1788 6297 1853C 6250 1948 6186 2012 6090 2059C 6022 2092 6006 2095 5920 2097C 5849 2099 5811 2095 5767 2081z" stroke="none" fill="#000000" fill-rule="nonzero" />
	</g>
</g>
</svg>